<svg width="30" height="30" viewBox="0 0 30 30" fill="none" xmlns="http://www.w3.org/2000/svg">
          <path fill-rule="evenodd" clip-rule="evenodd" d="M29.1724 14.5701C28.2129 13.7839 26.7853 13.9158 25.9914 14.8856C25.2052 15.8451 25.3474 17.2804 26.3069 18.0666C27.2664 18.8528 28.7017 18.7106 29.4879 17.7511C30.2819 16.7813 30.1319 15.3563 29.1724 14.5701Z" fill="#F0D0B0"></path>
          <path fill-rule="evenodd" clip-rule="evenodd" d="M27.9517 15.1158C27.2456 14.5365 26.1956 14.6347 25.6112 15.3485C25.0318 16.0546 25.1379 17.1097 25.8439 17.6891C26.5499 18.2684 27.6051 18.1623 28.1844 17.4563C28.7689 16.7425 28.6577 15.6951 27.9517 15.1158Z" fill="#E2B586"></path>
          <path fill-rule="evenodd" clip-rule="evenodd" d="M0.827581 14.5701C1.78706 13.7839 3.21465 13.9158 4.00862 14.8856C4.79482 15.8451 4.65258 17.2804 3.6931 18.0666C2.73362 18.8528 1.29827 18.7106 0.512064 17.7511C-0.281901 16.7813 -0.131901 15.3563 0.827581 14.5701Z" fill="#F0D0B0"></path>
          <path fill-rule="evenodd" clip-rule="evenodd" d="M2.04822 15.1158C2.75425 14.5365 3.80425 14.6347 4.38874 15.3485C4.96805 16.0546 4.86201 17.1097 4.15598 17.6891C3.44994 18.2684 2.39477 18.1623 1.81546 17.4563C1.23098 16.7425 1.34219 15.6951 2.04822 15.1158Z" fill="#E2B586"></path>
          <path fill-rule="evenodd" clip-rule="evenodd" d="M26.7646 12.4029C28.1431 22.5098 23.7698 27.0589 15.0232 27.4106C6.27667 27.0589 1.9034 22.5098 3.26633 12.4029C4.91633 0.294255 25.1301 0.294255 26.7646 12.4029Z" fill="#E7B27E" stroke="#373435"></path>
          <path fill-rule="evenodd" clip-rule="evenodd" d="M24.5398 20.0614C22.988 24.0774 19.2957 26.0003 13.8505 26.2331C11.298 26.1255 9.13036 25.6447 7.37488 24.7434C9.29672 26.138 11.8815 26.8666 15.0945 26.9917C20.5223 26.7739 24.1997 24.8511 25.7664 20.8676C26.335 19.4105 26.628 17.6729 26.6131 15.6273C26.5982 14.6359 26.5213 13.5793 26.3673 12.4651C25.9055 8.97494 23.862 6.5263 21.1704 5.1142C23.2313 6.57136 24.7385 8.77464 25.1233 11.689C25.3393 13.2238 25.3989 14.6359 25.3393 15.9078C25.2773 17.4901 25.0017 18.8697 24.5398 20.0639V20.0614Z" fill="#C98033"></path>
          <path d="M11.6638 15.3201C11.7 16.5046 10.769 17.4925 9.58711 17.5313C8.40262 17.5675 7.41211 16.6365 7.3759 15.4546C7.33969 14.2701 8.27073 13.2822 9.45521 13.2434C10.6397 13.2072 11.6276 14.1382 11.6664 15.3201H11.6638Z" fill="white"></path>
          <path d="M11.3198 15.4675C11.3483 16.3469 10.6552 17.0813 9.77588 17.1098C8.89657 17.1356 8.16209 16.4451 8.13364 15.5658C8.10778 14.6865 8.79829 13.952 9.6776 13.9236C10.5569 13.8951 11.2914 14.5882 11.3198 15.4675Z" fill="#382417"></path>
          <path d="M10.5129 15.1029C10.5207 15.346 10.3293 15.5477 10.0888 15.5555C9.84828 15.5632 9.64397 15.3719 9.63621 15.1313C9.62846 14.8882 9.81984 14.6865 10.0604 14.6788C10.3035 14.671 10.5052 14.8624 10.5129 15.1029Z" fill="white"></path>
          <path d="M22.2207 14.9942C22.2569 16.1787 21.3259 17.1667 20.144 17.2055C18.9595 17.2417 17.969 16.3132 17.9328 15.1287C17.8966 13.9442 18.8276 12.9563 20.0095 12.9175C21.194 12.8813 22.1819 13.8124 22.2207 14.9942Z" fill="white"></path>
          <path d="M21.8767 15.1417C21.9026 16.021 21.2121 16.7555 20.3328 16.7839C19.4535 16.8098 18.719 16.1193 18.6905 15.24C18.6647 14.3606 19.3552 13.6262 20.2345 13.5977C21.1138 13.5693 21.8483 14.2624 21.8767 15.1417Z" fill="#382417"></path>
          <path d="M21.0698 14.777C21.0776 15.0201 20.8862 15.2219 20.6457 15.2296C20.4026 15.2374 20.2009 15.046 20.1931 14.8055C20.1853 14.5624 20.3767 14.3606 20.6172 14.3529C20.8603 14.3451 21.0621 14.5365 21.0698 14.777Z" fill="white"></path>
          <path d="M16.1845 17.4175C16.1845 17.4175 16.2906 16.2252 15.1707 16.2459C14.0069 16.2666 14.2397 17.6115 14.2397 17.6115L16.1871 17.4175H16.1845Z" fill="#E2B586"></path>
          <mask id="mask0_902_3199" style="mask-type:luminance" maskUnits="userSpaceOnUse" x="10" y="18" width="10" height="7">
          <path d="M14.9354 24.6692C18.8742 24.9098 19.6164 21.2684 19.7535 19.6753C19.7871 19.2873 19.4767 18.9563 19.0862 18.9692L10.9138 19.2227C10.5233 19.2356 10.2311 19.5873 10.2931 19.9753C10.5181 21.4054 11.4104 24.4546 14.9328 24.6718L14.9354 24.6692Z" fill="white"></path>
          </mask>
          <g mask="url(#mask0_902_3199)">
          <path d="M14.9354 24.6692C18.8742 24.9098 19.6164 21.2684 19.7535 19.6753C19.7871 19.2873 19.4767 18.9563 19.0862 18.9692L10.9138 19.2227C10.5233 19.2356 10.2311 19.5873 10.2931 19.9753C10.5181 21.4054 11.4104 24.4546 14.9328 24.6718L14.9354 24.6692Z" fill="#F84F48" stroke="#373435" stroke-width="1.5"></path>
          <path d="M11.813 22.4895C13.9067 21.0955 16.5824 20.3864 19.1214 20.8598C19.2002 20.5395 19.2442 20.2454 19.2651 20.0097C19.2953 19.7075 19.017 19.4497 18.6669 19.4598L11.34 19.6572C10.9898 19.6672 10.7278 19.9412 10.7835 20.2434C10.8878 20.8175 11.1498 21.724 11.8106 22.4935L11.813 22.4895Z" fill="#FF7671"></path>
          </g>
          <path d="M9.1785 10.7244C8.50867 10.7632 7.97074 11.0529 7.40695 11.402C6.8897 11.7227 6.32333 12.1805 6.19143 12.7986C6.18108 12.8477 6.16039 13.0365 6.24057 13.0468C6.4216 13.0727 6.55867 12.8968 6.68022 12.7779C6.9285 12.5322 7.22591 12.333 7.51557 12.1443C8.0897 11.7693 8.66902 11.4253 9.20177 10.996C9.24315 10.9624 9.24315 10.7218 9.17591 10.727L9.1785 10.7244Z" fill="#382417"></path>
          <path d="M23.0276 11.3891C22.2285 10.5072 21.075 9.83216 19.8853 9.66923C19.8388 9.66406 19.8543 9.85802 19.8879 9.8813C20.4155 10.2227 20.9483 10.5408 21.4914 10.8563C21.9853 11.1434 22.4716 11.4718 23.0302 11.6192C23.0845 11.6347 23.0509 11.4149 23.0276 11.3891Z" fill="#382417"></path>
          <path d="M16.7561 2.03734C16.1225 -0.228178 13.7897 1.71406 13.4328 3.15717C13.1665 4.2382 13.2673 5.45372 13.6578 6.53993C13.3061 6.84251 12.9182 7.10372 12.4811 7.3132C12.3854 7.35975 12.5251 7.71924 12.6182 7.72958C13.1432 7.78131 13.5983 7.60544 13.9966 7.31062C14.1363 7.57958 14.2966 7.83303 14.4725 8.06837C15.4966 9.42872 17.6354 10.246 18.7759 8.50544C18.8277 8.42527 18.7164 8.06579 18.6001 8.09424C17.3716 8.39682 16.4794 9.02527 15.2613 8.23906C14.8216 7.95717 14.4854 7.56406 14.2346 7.11665C14.7596 6.64855 15.1863 5.99941 15.5587 5.47182C16.2621 4.47613 17.1156 3.31751 16.7587 2.03993L16.7561 2.03734ZM13.8958 6.32527C13.7044 5.70458 13.6397 5.03993 13.6863 4.42699C13.7302 3.8451 13.919 3.29165 14.2009 2.78475C14.4104 2.40458 14.7285 2.11751 15.0777 1.86924C15.7346 1.40113 16.9604 1.37786 16.319 2.97872C15.988 3.80372 15.3052 4.55113 14.7958 5.27268C14.5216 5.65803 14.2268 6.00975 13.8983 6.32268L13.8958 6.32527Z" fill="#382417"></path>
        </svg>