<svg width="30" height="30" viewBox="0 0 30 30" fill="none" xmlns="http://www.w3.org/2000/svg">
      <g clip-path="url(#clip0_914_4925)"> <path d="M9.62793 22.316C8.68493 20.9059 8.41529 17.805 9.95355 16.5719H0.501472C0.501472 20.5259 2.22244 27.5001 14.835 27.5001C17.1307 27.5001 19.0609 27.2879 20.6831 26.9156C19.2082 27.1948 13.3911 27.9457 9.62793 22.316Z" fill="#CE186B"></path> <path d="M29.1687 16.5719C29.1687 20.5259 27.987 27.5001 14.8351 27.5001C1.68325 27.5001 0.501553 20.5259 0.501553 16.5719H29.1687Z" fill="#EE69AA" stroke="#373435"></path> <g style="mix-blend-mode:soft-light" opacity="0.2">
      <path d="M24.6202 20.6877C28.6162 20.5015 29.1687 17.953 29.1687 16.5719H17.1234C16.8803 18.1209 19.1921 20.9395 24.6202 20.6877Z" fill="white"></path> </g> <path d="M14.835 16.5718C14.835 16.5718 14.7893 6.72415 14.835 2.94257C14.0423 3.42328 12.1857 3.76511 11.2619 3.20658C9.37883 3.50568 7.81699 4.04591 6.52479 4.754C5.6923 6.30449 3.74737 8.32042 2.40359 8.7233C1.56668 10.1334 1.08045 11.6564 0.807864 13.1092C1.14381 14.1469 1.08339 15.6959 0.499915 16.5718H14.8335H14.835Z" fill="#EE69AA" stroke="#373435"></path> <path d="M1.27248 12.8705L14.2484 16.0837L2.74879 8.802C1.97451 10.1105 1.52467 11.5238 1.27248 12.8719V12.8705Z" fill="#DA4E93"></path> <path d="M6.56155 5.11861L14.2484 16.0836L10.9441 3.68408C9.20199 3.96164 7.75704 4.46295 6.56155 5.12002V5.11861Z" fill="#DA4E93"></path> </g> <defs> <clipPath id="clip0_914_4925"> <rect width="30" height="30" fill="white" transform="matrix(-1 0 0 1 30 0)"></rect> </clipPath> </defs>
  </svg>