<svg width="30" height="30" viewBox="0 0 30 30" fill="none" xmlns="http://www.w3.org/2000/svg">
<path d="M28.9943 10.5283C28.9943 6.3698 25.8623 3 21.9972 3C18.132 3 15 6.3698 15 10.5283C15 6.3698 11.868 3 8.00284 3C4.13773 3 1.00569 6.3698 1.00569 10.5283C1.00569 10.5283 0.287219 21.5313 15 27C29.7128 21.5313 28.9943 10.5283 28.9943 10.5283Z" fill="#9F85DF" stroke="#373435"></path>
<g style="mix-blend-mode:soft-light">
<path d="M16.907 20.3336C9.75639 20.3336 3.95993 14.4456 3.95993 7.18195C3.95993 6.13118 4.08414 5.11185 4.31308 4.13184C2.32816 5.46036 1.00569 7.82918 1.00569 10.5282C1.00569 10.5282 0.287219 21.5311 15 26.9998C26.2763 22.8072 28.4877 15.3627 28.9066 12.1161C26.985 16.9324 22.3381 20.3336 16.9046 20.3336H16.907Z" fill="#A792DA"></path>
</g>
<path d="M8.20164 15.3834C9.22962 15.3834 10.063 14.4868 10.063 13.3808C10.063 12.2748 9.22962 11.3782 8.20164 11.3782C7.17367 11.3782 6.34033 12.2748 6.34033 13.3808C6.34033 14.4868 7.17367 15.3834 8.20164 15.3834Z" fill="#302E2B"></path>
<path d="M23.6747 13.3807C23.6747 14.4854 22.8365 15.3872 21.8098 15.3872C20.783 15.3872 19.9448 14.4854 19.9448 13.3807C19.9448 12.276 20.783 11.3742 21.8098 11.3742C22.8365 11.3742 23.6747 12.276 23.6747 13.3807Z" fill="#302E2B"></path>
<path d="M19.3817 19.7184C18.5591 20.9129 17.0335 21.7207 15.2763 21.7207C13.639 21.7207 12.2013 21.016 11.3467 19.9504" stroke="#373435" stroke-width="2" stroke-miterlimit="10" stroke-linecap="round"></path>
<g style="mix-blend-mode:multiply">
<path d="M7.19225 10.7987C7.16268 10.7987 7.13732 10.7942 7.10774 10.776C7.01478 10.726 6.97253 10.6032 7.01901 10.5032C7.17535 10.1486 7.71622 9.52123 8.62047 9.69399C8.72611 9.71217 8.79372 9.82128 8.77682 9.93039C8.75992 10.044 8.6585 10.1168 8.55709 10.0986C7.71199 9.93494 7.37818 10.6487 7.3655 10.6805C7.3317 10.7533 7.26409 10.7942 7.19225 10.7942V10.7987Z" fill="#FCD6DE"></path>
</g>
<g style="mix-blend-mode:multiply">
<path d="M23.7222 10.7986C23.6503 10.7986 23.5827 10.7576 23.5489 10.6849C23.5362 10.6531 23.2024 9.94386 22.3573 10.103C22.2559 10.1212 22.1545 10.0484 22.1376 9.93477C22.1207 9.82111 22.1883 9.71655 22.2939 9.69836C23.1982 9.52561 23.7391 10.1484 23.8954 10.5076C23.9419 10.6122 23.8996 10.7304 23.8067 10.7804C23.7813 10.794 23.7517 10.7986 23.7264 10.7986H23.7222Z" fill="#FCD6DE"></path>
</g>
<path opacity="0.5" d="M7.19225 10.7987C7.16268 10.7987 7.13732 10.7942 7.10774 10.776C7.01478 10.726 6.97253 10.6032 7.01901 10.5032C7.17535 10.1486 7.71622 9.52123 8.62047 9.69399C8.72611 9.71217 8.79372 9.82128 8.77682 9.93039C8.75992 10.044 8.6585 10.1168 8.55709 10.0986C7.71199 9.93494 7.37818 10.6487 7.3655 10.6805C7.3317 10.7533 7.26409 10.7942 7.19225 10.7942V10.7987Z" fill="white"></path>
<path opacity="0.5" d="M23.7222 10.7986C23.6503 10.7986 23.5827 10.7576 23.5489 10.6849C23.5362 10.6531 23.2024 9.94386 22.3573 10.103C22.2559 10.1212 22.1545 10.0484 22.1376 9.93477C22.1207 9.82111 22.1883 9.71655 22.2939 9.69836C23.1982 9.52561 23.7391 10.1484 23.8954 10.5076C23.9419 10.6122 23.8996 10.7304 23.8067 10.7804C23.7813 10.794 23.7517 10.7986 23.7264 10.7986H23.7222Z" fill="white"></path>
<path d="M22.7206 12.355C22.8882 12.5459 22.9092 12.8265 22.773 12.9612C22.6368 13.1072 22.3749 13.0623 22.2072 12.8602C22.0396 12.6581 22.0186 12.3887 22.1548 12.254C22.291 12.1081 22.553 12.153 22.7206 12.355Z" fill="white"></path>
<path d="M9.01806 12.3571C9.18547 12.5476 9.20639 12.8279 9.07037 12.9624C8.93435 13.0969 8.67278 13.0633 8.50537 12.8615C8.33796 12.6709 8.31703 12.3907 8.45305 12.2562C8.58907 12.1104 8.85065 12.1553 9.01806 12.3571Z" fill="white"></path>
</svg>